<svg  xmlns="http://www.w3.org/2000/svg" xmlns:xlink="http://www.w3.org/1999/xlink" viewBox="0 0 420 500"><defs _ngcontent-atw-c32=""><filter _ngcontent-atw-c32="" filterUnits="userSpaceOnUse" id="Filter_0" x="50px" y="0px" width="299px" height="429px"><feOffset _ngcontent-atw-c32="" in="SourceAlpha" dx="0" dy="10"></feOffset><feGaussianBlur _ngcontent-atw-c32="" result="blurOut" stdDeviation="4.472"></feGaussianBlur><feFlood _ngcontent-atw-c32="" flood-color="rgb(0, 0, 0)" result="floodOut"></feFlood><feComposite _ngcontent-atw-c32="" operator="atop" in="floodOut" in2="blurOut"></feComposite><feComponentTransfer _ngcontent-atw-c32=""><feFuncA _ngcontent-atw-c32="" type="linear" slope="0.1"></feFuncA></feComponentTransfer><feMerge _ngcontent-atw-c32=""><feMergeNode _ngcontent-atw-c32=""></feMergeNode><feMergeNode _ngcontent-atw-c32="" in="SourceGraphic"></feMergeNode></feMerge></filter><filter _ngcontent-atw-c32="" filterUnits="userSpaceOnUse" id="Filter_1" x="250px" y="240px" width="159px" height="204px"><feOffset _ngcontent-atw-c32="" in="SourceAlpha" dx="0" dy="5"></feOffset><feGaussianBlur _ngcontent-atw-c32="" result="blurOut" stdDeviation="3.162"></feGaussianBlur><feFlood _ngcontent-atw-c32="" flood-color="rgb(0, 0, 0)" result="floodOut"></feFlood><feComposite _ngcontent-atw-c32="" operator="atop" in="floodOut" in2="blurOut"></feComposite><feComponentTransfer _ngcontent-atw-c32=""><feFuncA _ngcontent-atw-c32="" type="linear" slope="0.1"></feFuncA></feComponentTransfer><feMerge _ngcontent-atw-c32=""><feMergeNode _ngcontent-atw-c32=""></feMergeNode><feMergeNode _ngcontent-atw-c32="" in="SourceGraphic"></feMergeNode></feMerge></filter><filter _ngcontent-atw-c32="" filterUnits="userSpaceOnUse" id="Filter_2" x="0px" y="324px" width="118px" height="118px"><feOffset _ngcontent-atw-c32="" in="SourceAlpha" dx="0" dy="4"></feOffset><feGaussianBlur _ngcontent-atw-c32="" result="blurOut" stdDeviation="3.162"></feGaussianBlur><feFlood _ngcontent-atw-c32="" flood-color="rgb(0, 0, 0)" result="floodOut"></feFlood><feComposite _ngcontent-atw-c32="" operator="atop" in="floodOut" in2="blurOut"></feComposite><feComponentTransfer _ngcontent-atw-c32=""><feFuncA _ngcontent-atw-c32="" type="linear" slope="0.1"></feFuncA></feComponentTransfer><feMerge _ngcontent-atw-c32=""><feMergeNode _ngcontent-atw-c32=""></feMergeNode><feMergeNode _ngcontent-atw-c32="" in="SourceGraphic"></feMergeNode></feMerge></filter></defs><path _ngcontent-atw-c32="" fill-rule="evenodd" fill="rgb(62, 196, 106)" d="M199.000,14.000 C303.934,14.000 389.000,99.066 389.000,204.000 C389.000,308.934 303.934,394.000 199.000,394.000 C94.066,394.000 9.000,308.934 9.000,204.000 C9.000,99.066 94.066,14.000 199.000,14.000 Z"></path><g _ngcontent-atw-c32="" filter="url(#Filter_0)"><path _ngcontent-atw-c32="" fill-rule="evenodd" fill="rgb(96, 220, 136)" d="M69.000,9.000 L329.000,9.000 L329.000,399.000 L69.000,399.000 L69.000,9.000 Z"></path></g><path _ngcontent-atw-c32="" fill-rule="evenodd" stroke="rgb(255, 255, 255)" stroke-width="2px" stroke-linecap="butt" stroke-linejoin="miter" fill="none" d="M124.000,9.000 L124.000,79.000 L274.000,79.000 L274.000,9.000 "></path><path _ngcontent-atw-c32="" fill-rule="evenodd" stroke="rgb(255, 255, 255)" stroke-width="2px" stroke-linecap="butt" stroke-linejoin="miter" fill="none" d="M164.000,9.000 L164.000,33.000 L234.000,33.000 L234.000,9.000 "></path><path _ngcontent-atw-c32="" fill-rule="evenodd" stroke="rgb(255, 255, 255)" stroke-width="2px" stroke-linecap="butt" stroke-linejoin="miter" fill="none" d="M169.000,78.000 C169.000,78.000 179.000,98.000 199.000,98.000 C219.000,98.000 229.000,78.000 229.000,78.000 "></path><path _ngcontent-atw-c32="" fill-rule="evenodd" fill="rgb(255, 255, 255)" d="M199.000,54.000 C200.105,54.000 201.000,54.895 201.000,56.000 C201.000,57.105 200.105,58.000 199.000,58.000 C197.895,58.000 197.000,57.105 197.000,56.000 C197.000,54.895 197.895,54.000 199.000,54.000 Z"></path><path _ngcontent-atw-c32="" fill-rule="evenodd" stroke="rgb(255, 255, 255)" stroke-width="2px" stroke-linecap="butt" stroke-linejoin="miter" fill="none" d="M124.000,399.000 L124.000,329.000 L274.000,329.000 L274.000,399.000 "></path><path _ngcontent-atw-c32="" fill-rule="evenodd" stroke="rgb(255, 255, 255)" stroke-width="2px" stroke-linecap="butt" stroke-linejoin="miter" fill="none" d="M164.000,399.000 L164.000,375.000 L234.000,375.000 L234.000,399.000 "></path><path _ngcontent-atw-c32="" fill-rule="evenodd" stroke="rgb(255, 255, 255)" stroke-width="2px" stroke-linecap="butt" stroke-linejoin="miter" fill="none" d="M169.000,330.000 C169.000,330.000 179.000,310.000 199.000,310.000 C219.000,310.000 229.000,330.000 229.000,330.000 "></path><path _ngcontent-atw-c32="" fill-rule="evenodd" fill="rgb(255, 255, 255)" d="M199.000,350.000 C200.105,350.000 201.000,350.895 201.000,352.000 C201.000,353.105 200.105,354.000 199.000,354.000 C197.895,354.000 197.000,353.105 197.000,352.000 C197.000,350.895 197.895,350.000 199.000,350.000 Z"></path><path _ngcontent-atw-c32="" fill-rule="evenodd" stroke="rgb(255, 255, 255)" stroke-width="2px" stroke-linecap="butt" stroke-linejoin="miter" fill="none" d="M69.000,204.000 L329.000,204.000 "></path><path _ngcontent-atw-c32="" fill-rule="evenodd" stroke="rgb(255, 255, 255)" stroke-width="2px" stroke-linecap="butt" stroke-linejoin="miter" fill="none" d="M199.000,164.000 C221.091,164.000 239.000,181.909 239.000,204.000 C239.000,226.091 221.091,244.000 199.000,244.000 C176.909,244.000 159.000,226.091 159.000,204.000 C159.000,181.909 176.909,164.000 199.000,164.000 Z"></path><g _ngcontent-atw-c32="" filter="url(#Filter_1)"><path _ngcontent-atw-c32="" fill-rule="evenodd" fill="rgb(255, 255, 255)" d="M269.460,244.591 L388.540,244.591 C394.309,244.591 398.986,249.268 398.986,255.037 L398.986,417.988 C398.986,423.757 394.309,428.434 388.540,428.434 L269.460,428.434 C263.691,428.434 259.014,423.757 259.014,417.988 L259.014,255.037 C259.014,249.268 263.691,244.591 269.460,244.591 Z"></path></g><path _ngcontent-atw-c32="" fill-rule="evenodd" fill="rgb(233, 234, 243)" d="M272.594,263.393 L385.407,263.393 L385.407,409.632 L272.594,409.632 L272.594,263.393 Z"></path><path _ngcontent-atw-c32="" fill-rule="evenodd" fill="rgb(185, 187, 209)" d="M299.000,374.000 L359.000,374.000 L359.000,384.000 L299.000,384.000 L299.000,374.000 Z"></path><path _ngcontent-atw-c32="" fill-rule="evenodd" stroke="rgb(185, 187, 209)" stroke-width="2px" stroke-linecap="butt" stroke-linejoin="miter" fill="rgb(255, 255, 255)" d="M329.000,414.678 C331.391,414.678 333.330,416.616 333.330,419.007 C333.330,421.398 331.391,423.337 329.000,423.337 C326.609,423.337 324.670,421.398 324.670,419.007 C324.670,416.616 326.609,414.678 329.000,414.678 Z"></path><path _ngcontent-atw-c32="" fill-rule="evenodd" fill="rgb(185, 187, 209)" d="M337.357,256.081 L326.911,256.081 C326.334,256.081 325.866,255.614 325.866,255.037 C325.866,254.460 326.334,253.992 326.911,253.992 L337.357,253.992 C337.933,253.992 338.401,254.460 338.401,255.037 C338.401,255.614 337.933,256.081 337.357,256.081 ZM321.688,256.081 C321.111,256.081 320.643,255.614 320.643,255.037 C320.643,254.460 321.111,253.992 321.688,253.992 C322.265,253.992 322.733,254.460 322.733,255.037 C322.733,255.614 322.265,256.081 321.688,256.081 Z"></path><path _ngcontent-atw-c32="" fill-rule="evenodd" stroke="rgb(255, 255, 255)" stroke-width="10px" stroke-linecap="round" stroke-linejoin="miter" fill="none" d="M214.000,146.000 C214.000,146.000 204.000,76.000 284.000,76.000 "></path><path _ngcontent-atw-c32="" fill-rule="evenodd" fill="rgb(255, 255, 255)" d="M290.678,79.536 L276.535,93.678 C274.583,95.630 271.417,95.630 269.464,93.678 C267.512,91.725 267.512,88.559 269.464,86.607 L280.071,76.000 L269.464,65.393 C267.512,63.441 267.512,60.275 269.464,58.322 C271.417,56.370 274.583,56.370 276.535,58.322 L290.678,72.464 C292.630,74.417 292.630,77.583 290.678,79.536 Z"></path><path _ngcontent-atw-c32="" fill-rule="evenodd" stroke="rgb(42, 169, 84)" stroke-width="8px" stroke-linecap="butt" stroke-linejoin="miter" fill="none" d="M305.000,169.000 C310.523,169.000 315.000,173.477 315.000,179.000 C315.000,184.523 310.523,189.000 305.000,189.000 C299.477,189.000 295.000,184.523 295.000,179.000 C295.000,173.477 299.477,169.000 305.000,169.000 Z"></path><path _ngcontent-atw-c32="" fill-rule="evenodd" stroke="rgb(42, 169, 84)" stroke-width="8px" stroke-linecap="butt" stroke-linejoin="miter" fill="none" d="M215.000,169.000 C220.523,169.000 225.000,173.477 225.000,179.000 C225.000,184.523 220.523,189.000 215.000,189.000 C209.477,189.000 205.000,184.523 205.000,179.000 C205.000,173.477 209.477,169.000 215.000,169.000 Z"></path><path _ngcontent-atw-c32="" fill-rule="evenodd" fill="rgb(52, 53, 76)" d="M220.657,53.000 L227.728,60.071 C229.290,61.633 229.290,64.166 227.728,65.728 C226.166,67.290 223.633,67.290 222.071,65.728 L215.000,58.657 L207.929,65.728 C206.367,67.290 203.834,67.290 202.272,65.728 C200.710,64.166 200.710,61.633 202.272,60.071 L209.343,53.000 L202.272,45.929 C200.710,44.367 200.710,41.834 202.272,40.272 C203.834,38.710 206.367,38.710 207.929,40.272 L215.000,47.343 L222.071,40.272 C223.633,38.710 226.166,38.710 227.728,40.272 C229.290,41.834 229.290,44.367 227.728,45.929 L220.657,53.000 Z"></path><path _ngcontent-atw-c32="" fill-rule="evenodd" fill="rgb(52, 53, 76)" d="M265.657,132.000 L272.728,139.071 C274.290,140.633 274.290,143.166 272.728,144.728 C271.166,146.290 268.633,146.290 267.071,144.728 L260.000,137.657 L252.929,144.728 C251.367,146.290 248.834,146.290 247.272,144.728 C245.710,143.166 245.710,140.633 247.272,139.071 L254.343,132.000 L247.272,124.929 C245.710,123.367 245.710,120.834 247.272,119.272 C248.834,117.710 251.367,117.710 252.929,119.272 L260.000,126.343 L267.071,119.272 C268.633,117.710 271.166,117.710 272.728,119.272 C274.290,120.834 274.290,123.367 272.728,124.929 L265.657,132.000 Z"></path><g _ngcontent-atw-c32="" filter="url(#Filter_2)"><path _ngcontent-atw-c32="" fill-rule="evenodd" fill="rgb(255, 255, 255)" d="M58.500,329.031 C85.838,329.031 108.000,351.186 108.000,378.516 C108.000,405.845 85.838,428.000 58.500,428.000 C31.162,428.000 9.000,405.845 9.000,378.516 C9.000,351.186 31.162,329.031 58.500,329.031 Z"></path></g><path _ngcontent-atw-c32="" fill-rule="evenodd" fill="rgb(52, 53, 76)" d="M27.120,370.119 L24.469,349.794 L15.188,354.654 C15.188,354.654 9.000,364.744 9.000,379.397 C9.026,379.423 13.862,385.583 13.862,385.583 L27.120,370.119 Z"></path><path _ngcontent-atw-c32="" fill-rule="evenodd" fill="rgb(52, 53, 76)" d="M89.879,370.119 L92.531,349.794 L101.812,354.654 C101.812,354.654 108.000,364.744 108.000,379.397 C107.974,379.423 103.138,385.583 103.138,385.583 L89.879,370.119 Z"></path><path _ngcontent-atw-c32="" fill-rule="evenodd" fill="rgb(52, 53, 76)" d="M39.937,405.024 L50.987,422.256 L42.589,424.907 C42.589,424.907 27.936,420.584 20.933,410.326 C20.933,410.428 20.049,401.048 20.049,401.048 L39.937,405.024 Z"></path><path _ngcontent-atw-c32="" fill-rule="evenodd" fill="rgb(52, 53, 76)" d="M76.620,405.466 L65.571,422.698 L73.969,425.349 C73.969,425.349 88.621,421.025 95.625,410.768 C95.625,410.869 96.509,401.489 96.509,401.489 L76.620,405.466 Z"></path><path _ngcontent-atw-c32="" fill-rule="evenodd" fill="rgb(52, 53, 76)" d="M58.058,360.398 L75.737,372.770 L69.991,393.978 L47.451,393.978 L40.821,373.654 L58.058,360.398 Z"></path><path _ngcontent-atw-c32="" fill-rule="evenodd" fill="rgb(52, 53, 76)" d="M58.500,346.259 L77.504,337.864 L70.433,330.353 C70.433,330.353 58.182,327.309 46.567,330.353 C46.373,330.441 39.054,337.864 39.054,337.864 L58.500,346.259 Z"></path><path _ngcontent-atw-c32="" fill-rule="evenodd" fill="rgb(42, 169, 84)" d="M354.000,100.000 C351.239,100.000 349.000,97.761 349.000,95.000 C349.000,92.239 351.239,90.000 354.000,90.000 C356.761,90.000 359.000,92.239 359.000,95.000 C359.000,97.761 356.761,100.000 354.000,100.000 ZM69.000,270.000 C60.716,270.000 54.000,263.284 54.000,255.000 C54.000,246.716 60.716,240.000 69.000,240.000 C77.284,240.000 84.000,246.716 84.000,255.000 C84.000,263.284 77.284,270.000 69.000,270.000 ZM44.000,170.000 C41.239,170.000 39.000,167.761 39.000,165.000 C39.000,162.239 41.239,160.000 44.000,160.000 C46.761,160.000 49.000,162.239 49.000,165.000 C49.000,167.761 46.761,170.000 44.000,170.000 Z"></path></svg>